<?xml version="1.0" encoding="UTF-8"?>
<svg id="mdi-cat" width="23.584" height="21.595" version="1.1" viewBox="0 0 23.584 21.595" xmlns="http://www.w3.org/2000/svg">
 <g transform="translate(-.208 -2.4262)">
  <path d="m12 5.9262-1.33 0.09c-0.86-1.02-3.27-3.59-5.67-3.59 0 0-1.97 2.96-0.04 6.91-0.55 0.83-0.89 1.26-0.96 2.25l-1.93 0.29 0.21 0.98 1.76-0.26 0.14 0.71-1.57 0.94 0.47 0.89 1.45-0.89c1.15 2.44 4.06 3.68 7.47 3.68 3.41 0 6.32-1.24 7.47-3.68l1.45 0.89 0.47-0.89-1.57-0.94 0.14-0.71 1.76 0.26 0.21-0.98-1.93-0.29c-0.07-0.99-0.41-1.42-0.96-2.25 1.93-3.95-0.04-6.91-0.04-6.91-2.4 0-4.81 2.57-5.67 3.59l-1.33-0.09m-3 3a1 1 0 0 1 1 1 1 1 0 0 1-1 1 1 1 0 0 1-1-1 1 1 0 0 1 1-1m6 0a1 1 0 0 1 1 1 1 1 0 0 1-1 1 1 1 0 0 1-1-1 1 1 0 0 1 1-1m-4 3h2l-0.7 1.39c0.2 0.64 0.76 1.11 1.45 1.11a1.5 1.5 0 0 0 1.5-1.5h0.5a2 2 0 0 1-2 2c-0.75 0-1.4-0.41-1.75-1-0.35 0.59-1 1-1.75 1a2 2 0 0 1-2-2h0.5a1.5 1.5 0 0 0 1.5 1.5c0.69 0 1.25-0.47 1.45-1.11z"/>
  <path d="m1.872 20.16q0.26667 0 0.48 0.11733 0.21333 0.11733 0.336 0.34667 0.128 0.224 0.128 0.53333v1.7387q0 0.03733-0.021333 0.05867-0.021333 0.02133-0.058667 0.02133h-0.84267q-0.037333 0-0.058667-0.02133-0.021333-0.02133-0.021333-0.05867v-1.52q0-0.16-0.085333-0.256-0.08-0.10133-0.21333-0.10133-0.13867 0-0.224 0.10133-0.08 0.096-0.08 0.256v1.52q0 0.03733-0.021333 0.05867-0.021333 0.02133-0.058667 0.02133h-0.84267q-0.037333 0-0.058667-0.02133t-0.021333-0.05867v-2.6133q0-0.03733 0.021333-0.05867 0.021333-0.02133 0.058667-0.02133h0.84267q0.037333 0 0.058667 0.02133 0.021333 0.02133 0.021333 0.05867v0.192q0 0.02133 0.010667 0.02667 0.010667 0.0053 0.016-0.01067 0.20267-0.33067 0.63467-0.33067zm3.9627 1.232q0.016 0.11733 0.016 0.24 0 0.08533-0.00533 0.13333 0 0.07467-0.08 0.07467h-1.6q-0.021333 0-0.021333 0.02133 0 0.048 0.042667 0.112 0.053333 0.09067 0.18667 0.15467 0.13867 0.05867 0.30933 0.05867 0.144 0 0.26667-0.04267t0.208-0.12267q0.026667-0.02133 0.053333-0.02133 0.037333 0 0.058667 0.032l0.40533 0.51733q0.021333 0.02667 0.021333 0.05867t-0.026667 0.05333q-0.18667 0.18133-0.464 0.272-0.27733 0.08533-0.59733 0.08533-0.496 0-0.848-0.208-0.352-0.208-0.512-0.592-0.11733-0.27733-0.11733-0.59733 0-0.336 0.096-0.59733 0.144-0.40533 0.47467-0.63467 0.33067-0.22933 0.77867-0.22933 0.34133 0 0.62933 0.16 0.29333 0.16 0.48 0.44267 0.192 0.27733 0.24533 0.62933zm-1.36-0.37333q-0.21867 0-0.304 0.21333l-0.021333 0.05867q-0.00533 0.016 0.00533 0.02667 0.010667 0.0053 0.021333 0.0053h0.608q0.021333 0 0.021333-0.02133t-0.016-0.06933q-0.026667-0.10133-0.112-0.15467-0.08-0.05867-0.20267-0.05867zm1.696-1.696q0-0.03733 0.021333-0.05867 0.021333-0.02133 0.058667-0.02133h0.84267q0.037333 0 0.058667 0.02133 0.021333 0.02133 0.021333 0.05867v1.5307q0 0.016 0.010667 0.02133 0.010667 0.0053 0.021333-0.01067l0.45333-0.61333q0.032-0.048 0.096-0.048h0.96q0.032 0 0.048 0.016 0.021333 0.01067 0.021333 0.032t-0.016 0.048l-0.688 0.928q-0.010667 0.016 0 0.03733l0.784 1.616 0.010667 0.04267q0 0.05333-0.069333 0.05333h-0.88q-0.069333 0-0.096-0.064l-0.432-1.024q-0.00533-0.01067-0.021333-0.01067-0.010667-0.0053-0.016 0.0053l-0.176 0.29872q-0.010667 0.02133-0.010667 0.032v0.68267q0 0.03733-0.021333 0.05867-0.021333 0.02133-0.058667 0.02133h-0.84267q-0.037333 0-0.058667-0.02133-0.021333-0.02133-0.021333-0.05867zm4.1867 3.696q-0.50667 0-0.85867-0.272-0.34667-0.272-0.45867-0.736-0.053333-0.192-0.053333-0.42667 0-0.26133 0.064-0.47467 0.128-0.44267 0.46933-0.69333 0.34667-0.256 0.84267-0.256 0.496 0 0.832 0.256 0.34133 0.25067 0.46933 0.68267 0.064 0.224 0.064 0.47467 0 0.20267-0.04267 0.40533-0.112 0.48-0.464 0.76267-0.34667 0.27733-0.864 0.27733zm0-0.85867q0.13867 0 0.224-0.09067 0.08533-0.096 0.11733-0.25067 0.02133-0.10133 0.02133-0.24 0-0.12267-0.02667-0.24533-0.08-0.31467-0.336-0.31467-0.26667 0-0.336 0.31467-0.026667 0.09067-0.026667 0.24533 0 0.13867 0.021333 0.24 0.08 0.34133 0.34133 0.34133zm4.4213-1.1573q0.08 0.26667 0.08 0.59733 0 0.384-0.11733 0.68267-0.128 0.32533-0.4 0.53333-0.272 0.20267-0.65067 0.20267-0.4 0-0.58667-0.256-0.01067-0.016-0.02133-0.01067-0.01067 0-0.01067 0.016v1.088q0 0.03733-0.02133 0.05867-0.02133 0.02133-0.05867 0.02133h-0.84267q-0.03733 0-0.05867-0.02133-0.02133-0.02133-0.02133-0.05867v-3.5733q0-0.03733 0.02133-0.05867 0.02133-0.02133 0.05867-0.02133h0.84267q0.03733 0 0.05867 0.02133 0.02133 0.02133 0.02133 0.05867v0.176q0 0.016 0.01067 0.02133 0.01067 0.0053 0.02133-0.01067 0.20267-0.30933 0.62933-0.30933 0.35733 0 0.64 0.22933 0.288 0.224 0.40533 0.61333zm-1.0507 0.98133q0.08-0.15467 0.08-0.4 0-0.24-0.08-0.38933-0.096-0.176-0.28267-0.176-0.18667 0-0.28267 0.18133-0.08 0.14933-0.08 0.384 0 0.256 0.08533 0.41067 0.096 0.16533 0.27733 0.16533 0.192 0 0.28267-0.176zm2.624-1.824q0.36267 0 0.66667 0.12267 0.304 0.12267 0.48 0.336t0.176 0.464v1.8133q0 0.03733-0.02133 0.05867-0.02133 0.02133-0.05867 0.02133h-0.84267q-0.03733 0-0.05867-0.02133-0.02133-0.02133-0.02133-0.05867v-0.18667q0-0.02133-0.01067-0.02133-0.0053-0.0053-0.016 0.01067-0.09067 0.16533-0.25067 0.24533-0.16 0.07467-0.42133 0.07467-0.43733 0-0.688-0.19733-0.25067-0.20267-0.25067-0.58667 0-0.40533 0.28267-0.624 0.288-0.21867 0.832-0.21867h0.496q0.02667 0 0.02667-0.02667v-0.096q0-0.112-0.08533-0.18133-0.08-0.06933-0.21867-0.06933-0.096 0-0.17067 0.032-0.07467 0.032-0.10667 0.08533-0.02133 0.03733-0.04267 0.05333-0.016 0.01067-0.048 0.0053l-0.85867-0.10667q-0.07467-0.01067-0.07467-0.064 0.02133-0.24 0.192-0.43733 0.17067-0.19733 0.45333-0.30933 0.288-0.11733 0.64-0.11733zm-0.06933 2.1653q0.17067 0 0.27733-0.09067 0.112-0.09067 0.112-0.24533v-0.06933q0-0.02667-0.02667-0.02667h-0.26667q-0.336 0-0.336 0.21867 0 0.096 0.05867 0.15467 0.064 0.05867 0.18133 0.05867zm3.4507-2.0427q0-0.03733 0.02133-0.05867 0.02133-0.02133 0.05867-0.02133h0.84267q0.03733 0 0.05867 0.02133 0.02133 0.02133 0.02133 0.05867v2.3307q0 0.76267-0.44267 1.0827-0.43733 0.32533-1.104 0.32533-0.29867 0-0.56-0.048-0.06933-0.016-0.06933-0.09067l0.032-0.72q0-0.09067 0.096-0.064 0.224 0.05867 0.42133 0.05867 0.256 0 0.42133-0.10667 0.16533-0.10667 0.19733-0.32533 0.0053-0.02133-0.01067-0.02667-0.01067-0.0053-0.02667 0.01067-0.18133 0.17067-0.52267 0.17067-0.85333 0-1.088-0.69333-0.09067-0.26667-0.09067-0.624 0-0.39467 0.112-0.672 0.128-0.336 0.4-0.53333 0.27733-0.19733 0.63467-0.19733 0.368 0 0.56533 0.224 0.01067 0.01067 0.02133 0.01067 0.01067-0.0053 0.01067-0.02133zm-0.05333 1.6427q0.05333-0.13867 0.05333-0.368 0-0.21333-0.05867-0.34667-0.09067-0.192-0.304-0.192-0.18667 0-0.28267 0.18667-0.08533 0.14933-0.08533 0.368 0 0.21333 0.06933 0.34667 0.096 0.18667 0.30933 0.18667t0.29867-0.18133zm4.096-0.53333q0.016 0.11733 0.016 0.24 0 0.08533-0.0053 0.13333 0 0.07467-0.08 0.07467h-1.6q-0.02133 0-0.02133 0.02133 0 0.048 0.04267 0.112 0.05333 0.09067 0.18667 0.15467 0.13867 0.05867 0.30933 0.05867 0.144 0 0.26667-0.04267 0.12267-0.04267 0.208-0.12267 0.02667-0.02133 0.05333-0.02133 0.03733 0 0.05867 0.032l0.40529 0.51733q0.02133 0.02667 0.02133 0.05867t-0.02667 0.05333q-0.18667 0.18133-0.464 0.272-0.27733 0.08533-0.59733 0.08533-0.496 0-0.848-0.208-0.352-0.208-0.512-0.592-0.11733-0.27733-0.11733-0.59733 0-0.336 0.096-0.59733 0.144-0.40533 0.47467-0.63467 0.33067-0.22933 0.77867-0.22933 0.34133 0 0.62933 0.16 0.29333 0.16 0.48 0.44267 0.192 0.27733 0.24533 0.62933zm-1.36-0.37333q-0.21867 0-0.304 0.21333l-0.02133 0.05867q-0.0053 0.016 0.0053 0.02667 0.01067 0.0053 0.02133 0.0053h0.608q0.02133 0 0.02133-0.02133t-0.016-0.06933q-0.02667-0.10133-0.112-0.15467-0.08-0.05867-0.20267-0.05867z" aria-label="nekopage"/>
 </g>
</svg>
